<svg width="121" height="34" viewBox="0 0 121 34" fill="none" xmlns="http://www.w3.org/2000/svg">
<rect x="59" y="13" width="62" height="21" rx="2" fill="#EFEFEF"/>
<path d="M42.526 17.108C41.59 17.108 40.69 16.958 39.826 16.658C38.974 16.358 38.314 15.962 37.846 15.47L38.368 14.444C38.824 14.9 39.43 15.272 40.186 15.56C40.942 15.836 41.722 15.974 42.526 15.974C43.654 15.974 44.5 15.77 45.064 15.362C45.628 14.942 45.91 14.402 45.91 13.742C45.91 13.238 45.754 12.836 45.442 12.536C45.142 12.236 44.77 12.008 44.326 11.852C43.882 11.684 43.264 11.504 42.472 11.312C41.524 11.072 40.768 10.844 40.204 10.628C39.64 10.4 39.154 10.058 38.746 9.602C38.35 9.146 38.152 8.528 38.152 7.748C38.152 7.112 38.32 6.536 38.656 6.02C38.992 5.492 39.508 5.072 40.204 4.76C40.9 4.448 41.764 4.292 42.796 4.292C43.516 4.292 44.218 4.394 44.902 4.598C45.598 4.79 46.198 5.06 46.702 5.408L46.252 6.47C45.724 6.122 45.16 5.864 44.56 5.696C43.96 5.516 43.372 5.426 42.796 5.426C41.692 5.426 40.858 5.642 40.294 6.074C39.742 6.494 39.466 7.04 39.466 7.712C39.466 8.216 39.616 8.624 39.916 8.936C40.228 9.236 40.612 9.47 41.068 9.638C41.536 9.794 42.16 9.968 42.94 10.16C43.864 10.388 44.608 10.616 45.172 10.844C45.748 11.06 46.234 11.396 46.63 11.852C47.026 12.296 47.224 12.902 47.224 13.67C47.224 14.306 47.05 14.888 46.702 15.416C46.366 15.932 45.844 16.346 45.136 16.658C44.428 16.958 43.558 17.108 42.526 17.108ZM53.7802 17.09C52.8442 17.09 52.0042 16.886 51.2602 16.478C50.5282 16.07 49.9522 15.5 49.5322 14.768C49.1122 14.024 48.9022 13.19 48.9022 12.266C48.9022 11.342 49.1122 10.514 49.5322 9.782C49.9522 9.05 50.5282 8.48 51.2602 8.072C52.0042 7.664 52.8442 7.46 53.7802 7.46C54.5962 7.46 55.3222 7.622 55.9582 7.946C56.6062 8.258 57.1162 8.72 57.4882 9.332L56.5342 9.98C56.2222 9.512 55.8262 9.164 55.3462 8.936C54.8662 8.696 54.3442 8.576 53.7802 8.576C53.0962 8.576 52.4782 8.732 51.9262 9.044C51.3862 9.344 50.9602 9.776 50.6482 10.34C50.3482 10.904 50.1982 11.546 50.1982 12.266C50.1982 12.998 50.3482 13.646 50.6482 14.21C50.9602 14.762 51.3862 15.194 51.9262 15.506C52.4782 15.806 53.0962 15.956 53.7802 15.956C54.3442 15.956 54.8662 15.842 55.3462 15.614C55.8262 15.386 56.2222 15.038 56.5342 14.57L57.4882 15.218C57.1162 15.83 56.6062 16.298 55.9582 16.622C55.3102 16.934 54.5842 17.09 53.7802 17.09ZM61.2228 9.386C61.5228 8.75 61.9668 8.27 62.5548 7.946C63.1548 7.622 63.8928 7.46 64.7688 7.46V8.702L64.4628 8.684C63.4668 8.684 62.6868 8.99 62.1228 9.602C61.5588 10.214 61.2768 11.072 61.2768 12.176V17H59.9988V7.532H61.2228V9.386ZM70.3772 7.46C71.6132 7.46 72.5612 7.772 73.2212 8.396C73.8812 9.008 74.2112 9.92 74.2112 11.132V17H72.9872V15.524C72.6992 16.016 72.2732 16.4 71.7092 16.676C71.1572 16.952 70.4972 17.09 69.7292 17.09C68.6732 17.09 67.8332 16.838 67.2092 16.334C66.5852 15.83 66.2732 15.164 66.2732 14.336C66.2732 13.532 66.5612 12.884 67.1372 12.392C67.7252 11.9 68.6552 11.654 69.9272 11.654H72.9332V11.078C72.9332 10.262 72.7052 9.644 72.2492 9.224C71.7932 8.792 71.1272 8.576 70.2512 8.576C69.6512 8.576 69.0752 8.678 68.5232 8.882C67.9712 9.074 67.4972 9.344 67.1012 9.692L66.5252 8.738C67.0052 8.33 67.5812 8.018 68.2532 7.802C68.9252 7.574 69.6332 7.46 70.3772 7.46ZM69.9272 16.082C70.6472 16.082 71.2652 15.92 71.7812 15.596C72.2972 15.26 72.6812 14.78 72.9332 14.156V12.608H69.9632C68.3432 12.608 67.5332 13.172 67.5332 14.3C67.5332 14.852 67.7432 15.29 68.1632 15.614C68.5832 15.926 69.1712 16.082 69.9272 16.082ZM82.5604 7.46C83.4484 7.46 84.2524 7.664 84.9724 8.072C85.6924 8.468 86.2564 9.032 86.6644 9.764C87.0724 10.496 87.2764 11.33 87.2764 12.266C87.2764 13.214 87.0724 14.054 86.6644 14.786C86.2564 15.518 85.6924 16.088 84.9724 16.496C84.2644 16.892 83.4604 17.09 82.5604 17.09C81.7924 17.09 81.0964 16.934 80.4724 16.622C79.8604 16.298 79.3564 15.83 78.9604 15.218V20.492H77.6824V7.532H78.9064V9.404C79.2904 8.78 79.7944 8.3 80.4184 7.964C81.0544 7.628 81.7684 7.46 82.5604 7.46ZM82.4704 15.956C83.1304 15.956 83.7304 15.806 84.2704 15.506C84.8104 15.194 85.2304 14.756 85.5304 14.192C85.8424 13.628 85.9984 12.986 85.9984 12.266C85.9984 11.546 85.8424 10.91 85.5304 10.358C85.2304 9.794 84.8104 9.356 84.2704 9.044C83.7304 8.732 83.1304 8.576 82.4704 8.576C81.7984 8.576 81.1924 8.732 80.6524 9.044C80.1244 9.356 79.7044 9.794 79.3924 10.358C79.0924 10.91 78.9424 11.546 78.9424 12.266C78.9424 12.986 79.0924 13.628 79.3924 14.192C79.7044 14.756 80.1244 15.194 80.6524 15.506C81.1924 15.806 81.7984 15.956 82.4704 15.956ZM98.1256 12.662H90.2056C90.2776 13.646 90.6556 14.444 91.3396 15.056C92.0236 15.656 92.8876 15.956 93.9316 15.956C94.5196 15.956 95.0596 15.854 95.5516 15.65C96.0436 15.434 96.4696 15.122 96.8296 14.714L97.5496 15.542C97.1296 16.046 96.6016 16.43 95.9656 16.694C95.3416 16.958 94.6516 17.09 93.8956 17.09C92.9236 17.09 92.0596 16.886 91.3036 16.478C90.5596 16.058 89.9776 15.482 89.5576 14.75C89.1376 14.018 88.9276 13.19 88.9276 12.266C88.9276 11.342 89.1256 10.514 89.5216 9.782C89.9296 9.05 90.4816 8.48 91.1776 8.072C91.8856 7.664 92.6776 7.46 93.5536 7.46C94.4296 7.46 95.2156 7.664 95.9116 8.072C96.6076 8.48 97.1536 9.05 97.5496 9.782C97.9456 10.502 98.1436 11.33 98.1436 12.266L98.1256 12.662ZM93.5536 8.558C92.6416 8.558 91.8736 8.852 91.2496 9.44C90.6376 10.016 90.2896 10.772 90.2056 11.708H96.9196C96.8356 10.772 96.4816 10.016 95.8576 9.44C95.2456 8.852 94.4776 8.558 93.5536 8.558Z" fill="#515151"/>
<path d="M56.512 28.616C56.352 28.76 56.152 28.872 55.912 28.952C55.68 29.024 55.436 29.06 55.18 29.06C54.588 29.06 54.132 28.9 53.812 28.58C53.492 28.26 53.332 27.808 53.332 27.224V23.408H52.204V22.688H53.332V21.308H54.184V22.688H56.104V23.408H54.184V27.176C54.184 27.552 54.276 27.84 54.46 28.04C54.652 28.232 54.924 28.328 55.276 28.328C55.452 28.328 55.62 28.3 55.78 28.244C55.948 28.188 56.092 28.108 56.212 28.004L56.512 28.616ZM61.279 22.64C62.071 22.64 62.699 22.872 63.163 23.336C63.635 23.792 63.871 24.46 63.871 25.34V29H63.019V25.424C63.019 24.768 62.855 24.268 62.527 23.924C62.199 23.58 61.731 23.408 61.123 23.408C60.443 23.408 59.903 23.612 59.503 24.02C59.111 24.42 58.915 24.976 58.915 25.688V29H58.063V20.096H58.915V23.792C59.147 23.424 59.467 23.14 59.875 22.94C60.283 22.74 60.751 22.64 61.279 22.64ZM71.7035 26.108H66.4235C66.4715 26.764 66.7235 27.296 67.1795 27.704C67.6355 28.104 68.2115 28.304 68.9075 28.304C69.2995 28.304 69.6595 28.236 69.9875 28.1C70.3155 27.956 70.5995 27.748 70.8395 27.476L71.3195 28.028C71.0395 28.364 70.6875 28.62 70.2635 28.796C69.8475 28.972 69.3875 29.06 68.8835 29.06C68.2355 29.06 67.6595 28.924 67.1555 28.652C66.6595 28.372 66.2715 27.988 65.9915 27.5C65.7115 27.012 65.5715 26.46 65.5715 25.844C65.5715 25.228 65.7035 24.676 65.9675 24.188C66.2395 23.7 66.6075 23.32 67.0715 23.048C67.5435 22.776 68.0715 22.64 68.6555 22.64C69.2395 22.64 69.7635 22.776 70.2275 23.048C70.6915 23.32 71.0555 23.7 71.3195 24.188C71.5835 24.668 71.7155 25.22 71.7155 25.844L71.7035 26.108ZM68.6555 23.372C68.0475 23.372 67.5355 23.568 67.1195 23.96C66.7115 24.344 66.4795 24.848 66.4235 25.472H70.8995C70.8435 24.848 70.6075 24.344 70.1915 23.96C69.7835 23.568 69.2715 23.372 68.6555 23.372Z" fill="#515151"/>
<path d="M77.6842 20.1439C77.6842 20.1439 77.8125 19.8767 78.0314 19.8767C78.2504 19.8767 78.3407 20.3496 78.5692 20.3496C78.7977 20.3496 78.8233 20.1439 78.9612 20.1439V29.3618H77.6842V20.1439Z" fill="#FA6652"/>
<path d="M88.9925 18.2041V29.3618H87.9751V27.7979C87.6559 28.3292 87.2319 28.7352 86.7032 29.0159C86.1845 29.2966 85.596 29.437 84.9376 29.437C84.1995 29.437 83.5312 29.2665 82.9327 28.9257C82.3341 28.5849 81.8653 28.1087 81.5262 27.4972C81.187 26.8856 81.0174 26.1889 81.0174 25.407C81.0174 24.625 81.187 23.9283 81.5262 23.3168C81.8653 22.7053 82.3341 22.2341 82.9327 21.9033C83.5312 21.5625 84.1995 21.392 84.9376 21.392C85.5761 21.392 86.1496 21.5274 86.6584 21.798C87.1771 22.0587 87.601 22.4446 87.9302 22.9559V18.2041H88.9925ZM85.0274 28.4896C85.5761 28.4896 86.0698 28.3643 86.5087 28.1137C86.9576 27.853 87.3067 27.4871 87.5561 27.016C87.8155 26.5448 87.9451 26.0085 87.9451 25.407C87.9451 24.8055 87.8155 24.2692 87.5561 23.798C87.3067 23.3268 86.9576 22.9659 86.5087 22.7153C86.0698 22.4547 85.5761 22.3243 85.0274 22.3243C84.4688 22.3243 83.9651 22.4547 83.5162 22.7153C83.0773 22.9659 82.7282 23.3268 82.4688 23.798C82.2194 24.2692 82.0947 24.8055 82.0947 25.407C82.0947 26.0085 82.2194 26.5448 82.4688 27.016C82.7282 27.4871 83.0773 27.853 83.5162 28.1137C83.9651 28.3643 84.4688 28.4896 85.0274 28.4896Z" fill="#FA6652"/>
<path d="M98.804 25.7378H92.2205C92.2803 26.5598 92.5945 27.2265 93.1631 27.7378C93.7317 28.239 94.4499 28.4896 95.3177 28.4896C95.8065 28.4896 96.2554 28.4044 96.6644 28.234C97.0734 28.0535 97.4275 27.7929 97.7267 27.4521L98.3252 28.1438C97.9761 28.5648 97.5372 28.8856 97.0085 29.1061C96.4898 29.3267 95.9163 29.437 95.2878 29.437C94.4798 29.437 93.7616 29.2665 93.1332 28.9257C92.5147 28.5748 92.031 28.0936 91.6818 27.4821C91.3327 26.8706 91.1581 26.1789 91.1581 25.407C91.1581 24.6351 91.3227 23.9434 91.6519 23.3318C91.9911 22.7203 92.4499 22.2442 93.0285 21.9033C93.617 21.5625 94.2754 21.392 95.0035 21.392C95.7317 21.392 96.3851 21.5625 96.9636 21.9033C97.5422 22.2442 97.9961 22.7203 98.3252 23.3318C98.6544 23.9333 98.819 24.625 98.819 25.407L98.804 25.7378ZM95.0035 22.3093C94.2454 22.3093 93.607 22.5549 93.0883 23.0461C92.5796 23.5273 92.2903 24.1589 92.2205 24.9408H97.8015C97.7317 24.1589 97.4375 23.5273 96.9188 23.0461C96.41 22.5549 95.7716 22.3093 95.0035 22.3093Z" fill="#FA6652"/>
<path d="M103.515 21.392C104.543 21.392 105.331 21.6527 105.879 22.174C106.428 22.6852 106.702 23.4471 106.702 24.4596V29.3618H105.685V28.1287C105.445 28.5397 105.091 28.8605 104.623 29.0911C104.164 29.3217 103.615 29.437 102.977 29.437C102.099 29.437 101.401 29.2264 100.882 28.8054C100.363 28.3844 100.104 27.828 100.104 27.1363C100.104 26.4646 100.343 25.9233 100.822 25.5122C101.311 25.1012 102.084 24.8957 103.141 24.8957H105.64V24.4145C105.64 23.7328 105.45 23.2166 105.071 22.8657C104.692 22.5048 104.139 22.3243 103.411 22.3243C102.912 22.3243 102.433 22.4096 101.974 22.58C101.515 22.7404 101.121 22.9659 100.792 23.2567L100.313 22.4597C100.712 22.1188 101.191 21.8582 101.75 21.6777C102.308 21.4873 102.897 21.392 103.515 21.392ZM103.141 28.5949C103.74 28.5949 104.253 28.4595 104.682 28.1889C105.111 27.9082 105.431 27.5072 105.64 26.9859V25.6927H103.171C101.825 25.6927 101.151 26.1639 101.151 27.1062C101.151 27.5673 101.326 27.9332 101.675 28.2039C102.024 28.4646 102.513 28.5949 103.141 28.5949Z" fill="#FA6652"/>
<rect y="1" width="25" height="25" rx="2" fill="#EFEFEF"/>
<rect x="7" y="8" width="25" height="25" rx="2" fill="#FA6652"/>
</svg>
